<?xml version="1.0" encoding="utf-8"?>
<!-- Generator: Adobe Illustrator 23.0.4, SVG Export Plug-In . SVG Version: 6.00 Build 0)  -->
<svg version="1.1" id="Layer_1" xmlns="http://www.w3.org/2000/svg" xmlns:xlink="http://www.w3.org/1999/xlink" x="0px" y="0px"
	 viewBox="0 0 80 68" style="enable-background:new 0 0 80 68;" xml:space="preserve">
<style type="text/css">
	.st0{fill-rule:evenodd;clip-rule:evenodd;fill:#FFFFFF;}
	.st1{enable-background:new    ;}
	.st2{fill:#FFFFFF;}
</style>
<title>Scroll</title>
<desc>Created with Sketch.</desc>
<g id="Page-1">
	<g id="Render_Home_V1-Copy" transform="translate(-680.000000, -804.000000)">
		<g id="Scroll" transform="translate(680.000000, 804.000000)">
			<g id="Mouse" transform="translate(27.000000, 0.000000)">
				<g id="Fill-1">
					<path class="st0" d="M24.2,26.7c0,5.8-4.8,10.6-10.7,10.6c-5.9,0-10.7-4.7-10.7-10.6V13.3c0-5.8,4.8-10.6,10.7-10.6
						c5.9,0,10.7,4.7,10.7,10.6V26.7z M27,13.3C27,6,21,0,13.5,0C6,0,0,6,0,13.3v13.3C0,34,6,40,13.5,40C21,40,27,34,27,26.7V13.3z"
						/>
				</g>
				<g id="Fill-3">
					<path class="st0" d="M13.5,9C12.7,9,12,9.6,12,10.4v5.2c0,0.8,0.7,1.4,1.5,1.4s1.5-0.6,1.5-1.4v-5.2C15,9.6,14.3,9,13.5,9"/>
				</g>
			</g>
			<g class="st1">
				<path class="st2" d="M6.9,65.7c-0.2,0.4-0.6,0.7-1,1c-0.5,0.3-1,0.4-1.7,0.4c-0.7,0-1.2-0.1-1.7-0.4c-0.5-0.2-0.9-0.6-1.2-1
					c-0.3-0.4-0.5-0.9-0.5-1.4h1.4c0,0.3,0.1,0.6,0.3,0.8c0.2,0.3,0.4,0.5,0.7,0.7c0.3,0.2,0.7,0.3,1.1,0.3c0.6,0,1-0.1,1.3-0.4
					s0.4-0.7,0.4-1.1c0-0.4-0.1-0.7-0.3-1c-0.2-0.3-0.5-0.5-0.8-0.6s-0.7-0.3-1.3-0.5c-0.6-0.2-1.1-0.4-1.5-0.6
					c-0.4-0.2-0.7-0.5-1-0.8s-0.4-0.8-0.4-1.4c0-0.5,0.1-1,0.4-1.4c0.2-0.4,0.6-0.7,1.1-0.9s1-0.3,1.6-0.3c1,0,1.7,0.2,2.3,0.7
					c0.6,0.5,0.9,1.1,1,1.8H5.7c-0.1-0.4-0.3-0.7-0.6-1C4.8,58.2,4.3,58,3.8,58c-0.5,0-0.9,0.1-1.2,0.4c-0.3,0.3-0.5,0.6-0.5,1.1
					c0,0.4,0.1,0.7,0.3,0.9c0.2,0.2,0.5,0.4,0.7,0.6c0.3,0.1,0.7,0.3,1.2,0.5c0.6,0.2,1.1,0.4,1.5,0.6c0.4,0.2,0.7,0.5,1,0.8
					s0.4,0.9,0.4,1.5C7.3,64.9,7.2,65.3,6.9,65.7z"/>
				<path class="st2" d="M14.8,60c0.6,0.5,1,1.2,1.2,2.1h-1.3c-0.1-0.5-0.3-1-0.8-1.3c-0.4-0.3-0.9-0.5-1.5-0.5
					c-0.4,0-0.9,0.1-1.2,0.3c-0.4,0.2-0.7,0.5-0.9,0.9c-0.2,0.4-0.3,1-0.3,1.6s0.1,1.2,0.3,1.6c0.2,0.4,0.5,0.7,0.9,0.9
					c0.4,0.2,0.8,0.3,1.2,0.3c0.6,0,1.1-0.2,1.5-0.5c0.4-0.3,0.7-0.8,0.8-1.3H16c-0.1,0.9-0.5,1.6-1.2,2.1c-0.6,0.5-1.5,0.8-2.4,0.8
					c-0.7,0-1.4-0.2-2-0.5s-1-0.8-1.3-1.4c-0.3-0.6-0.5-1.3-0.5-2.1s0.2-1.5,0.5-2.1c0.3-0.6,0.8-1.1,1.3-1.4s1.2-0.5,2-0.5
					C13.4,59.2,14.2,59.5,14.8,60z"/>
				<path class="st2" d="M20,59.6c0.5-0.3,1.1-0.4,1.7-0.4v1.4h-0.4c-0.7,0-1.3,0.2-1.8,0.6c-0.5,0.4-0.7,1-0.7,1.8v4h-1.3v-7.7h1.3
					v1.6C19.2,60.3,19.6,59.9,20,59.6z"/>
				<path class="st2" d="M28.5,59.7c0.6,0.3,1,0.8,1.4,1.4c0.3,0.6,0.5,1.3,0.5,2.1s-0.2,1.5-0.5,2.1c-0.3,0.6-0.8,1-1.4,1.4
					c-0.6,0.3-1.2,0.5-2,0.5s-1.4-0.2-2-0.5s-1-0.8-1.4-1.4s-0.5-1.3-0.5-2.1s0.2-1.5,0.5-2.1c0.3-0.6,0.8-1.1,1.4-1.4
					s1.2-0.5,2-0.5S27.9,59.4,28.5,59.7z M25.3,60.6c-0.4,0.2-0.7,0.5-0.9,0.9c-0.2,0.4-0.4,1-0.4,1.6c0,0.6,0.1,1.1,0.4,1.6
					c0.2,0.4,0.6,0.7,0.9,0.9c0.4,0.2,0.8,0.3,1.3,0.3c0.5,0,0.9-0.1,1.3-0.3s0.7-0.5,0.9-0.9c0.2-0.4,0.4-0.9,0.4-1.6
					c0-0.6-0.1-1.2-0.4-1.6c-0.2-0.4-0.6-0.7-0.9-0.9c-0.4-0.2-0.8-0.3-1.3-0.3C26.1,60.3,25.6,60.4,25.3,60.6z"/>
				<path class="st2" d="M33.3,56.6V67H32V56.6H33.3z"/>
				<path class="st2" d="M36.6,56.6V67h-1.3V56.6H36.6z"/>
				<path class="st2" d="M49.9,64.7c-0.4,0.7-1,1.3-1.8,1.7c-0.8,0.4-1.7,0.6-2.8,0.6h-3.1v-9.9h3.1c1.1,0,2,0.2,2.8,0.6
					c0.8,0.4,1.4,1,1.8,1.7c0.4,0.7,0.6,1.6,0.6,2.6C50.5,63.1,50.3,63.9,49.9,64.7z M48.1,64.9c0.7-0.7,1-1.6,1-2.8s-0.3-2.1-1-2.8
					c-0.7-0.7-1.7-1-3-1h-1.8v7.6h1.8C46.5,65.9,47.5,65.5,48.1,64.9z"/>
				<path class="st2" d="M57.6,59.7c0.6,0.3,1,0.8,1.4,1.4c0.3,0.6,0.5,1.3,0.5,2.1s-0.2,1.5-0.5,2.1c-0.3,0.6-0.8,1-1.4,1.4
					c-0.6,0.3-1.2,0.5-2,0.5s-1.4-0.2-2-0.5c-0.6-0.3-1-0.8-1.4-1.4c-0.3-0.6-0.5-1.3-0.5-2.1s0.2-1.5,0.5-2.1
					c0.3-0.6,0.8-1.1,1.4-1.4c0.6-0.3,1.2-0.5,2-0.5S57.1,59.4,57.6,59.7z M54.4,60.6c-0.4,0.2-0.7,0.5-0.9,0.9
					c-0.2,0.4-0.4,1-0.4,1.6c0,0.6,0.1,1.1,0.4,1.6c0.2,0.4,0.6,0.7,0.9,0.9c0.4,0.2,0.8,0.3,1.3,0.3s0.9-0.1,1.3-0.3
					c0.4-0.2,0.7-0.5,0.9-0.9c0.2-0.4,0.4-0.9,0.4-1.6c0-0.6-0.1-1.2-0.4-1.6s-0.6-0.7-0.9-0.9c-0.4-0.2-0.8-0.3-1.3-0.3
					S54.8,60.4,54.4,60.6z"/>
				<path class="st2" d="M71.7,59.3L69.5,67h-1.4L66,60.7L63.9,67h-1.4l-2.2-7.7h1.3l1.6,6.5l2.1-6.5h1.3l2.1,6.5l1.7-6.5H71.7z"/>
				<path class="st2" d="M79.1,60c0.6,0.6,0.8,1.4,0.8,2.5V67h-1.3v-4.4c0-0.8-0.2-1.4-0.6-1.8c-0.4-0.4-0.9-0.6-1.6-0.6
					c-0.7,0-1.3,0.2-1.7,0.7c-0.4,0.5-0.6,1.1-0.6,2V67h-1.3v-7.7h1.3v1.8c0.2-0.6,0.5-1.1,1-1.4s1.1-0.5,1.7-0.5
					C77.9,59.2,78.6,59.5,79.1,60z"/>
			</g>
		</g>
	</g>
</g>
</svg>
