<?xml version="1.0" encoding="UTF-8"?>
<svg width="59px" height="40px" viewBox="0 0 59 40" version="1.1" xmlns="http://www.w3.org/2000/svg" xmlns:xlink="http://www.w3.org/1999/xlink">
    <!-- Generator: Sketch 52.6 (67491) - http://www.bohemiancoding.com/sketch -->
    <title>YouTube</title>
    <desc>Created with Sketch.</desc>
    <defs>
        <polygon id="path-1" points="0 0.704761905 58.9406067 0.704761905 58.9406067 40 0 40"></polygon>
        <polygon id="path-3" points="0 0 14.1086957 0 14.1086957 16.25 0 16.25"></polygon>
    </defs>
    <g id="Page-1" stroke="none" stroke-width="1" fill="none" fill-rule="evenodd">
        <g id="Render_Services_V1-Copy" transform="translate(-560.000000, -487.000000)">
            <g id="YouTube" transform="translate(560.000000, 487.000000)">
                <g id="Group-6">
                    <g id="Group-3">
                        <mask id="mask-2" fill="white">
                            <use xlink:href="#path-1"></use>
                        </mask>
                        <g id="Clip-2"></g>
                        <path d="M10.8752733,4.53333333 C7.07370667,4.50095238 3.96637333,7.46095238 3.93294,11.1428571 L3.93294,11.1809524 L3.93294,29.5238095 C3.93294,33.2057143 7.01470667,36.1904762 10.8162733,36.1904762 L48.12394,36.1904762 C51.9274733,36.1904762 55.0072733,33.2057143 55.0072733,29.5238095 L55.0072733,11.1809524 C55.0072733,7.49904762 51.9274733,4.51428571 48.12394,4.51428571 L10.8752733,4.51428571 L10.8752733,4.53333333 Z M48.12394,40 L10.8752733,40 C4.90250667,40.0304762 0.03304,35.367619 -0.000393333333,29.5809524 L-0.000393333333,29.5428571 L-0.000393333333,11.1809524 C-0.000393333333,5.39428571 4.84350667,0.704761905 10.8162733,0.704761905 L48.12394,0.704761905 C54.0986733,0.704761905 58.9406067,5.39428571 58.9406067,11.1809524 L58.9406067,29.5238095 C58.9406067,35.3104762 54.0986733,40 48.12394,40 Z" id="Fill-1" stroke="#101014" stroke-width="2" fill="#FFFFFF" mask="url(#mask-2)"></path>
                    </g>
                </g>
                <g id="Group-3" transform="translate(23.086957, 12.500000)">
                    <mask id="mask-4" fill="white">
                        <use xlink:href="#path-3"></use>
                    </mask>
                    <g id="Clip-2"></g>
                    <path d="M2.17056856,13.3855606 L2.17056856,2.86230096 L11.0047826,8.12393078 L2.17056856,13.3855606 Z M14.1086957,8.12393078 C14.1086957,7.77857284 13.9241973,7.45353007 13.6094649,7.27069351 L1.67133779,0.160382945 C1.33489967,-0.0427687854 0.911638796,-0.0529263719 0.564347826,0.129910186 C0.217056856,0.302589156 0,0.637789512 0,1.01362021 L0,15.2342413 C0,15.610072 0.217056856,15.9452724 0.564347826,16.128109 C0.727140468,16.2093697 0.900785953,16.25 1.08528428,16.25 C1.29148829,16.25 1.48683946,16.1992121 1.67133779,16.0874786 L13.6094649,8.97716805 C13.9241973,8.79433149 14.1086957,8.46928872 14.1086957,8.12393078 Z" id="Fill-1" stroke="#101014" stroke-width="0.5" fill="#FFFFFF" mask="url(#mask-4)"></path>
                </g>
            </g>
        </g>
    </g>
</svg>