<?xml version="1.0" encoding="UTF-8"?>
<svg width="50px" height="50px" viewBox="0 0 50 50" version="1.1" xmlns="http://www.w3.org/2000/svg" xmlns:xlink="http://www.w3.org/1999/xlink">
    <!-- Generator: Sketch 52.6 (67491) - http://www.bohemiancoding.com/sketch -->
    <title>Graphic Design</title>
    <desc>Created with Sketch.</desc>
    <g id="Page-1" stroke="none" stroke-width="1" fill="none" fill-rule="evenodd">
        <g id="Render_Services_V1-Copy" transform="translate(-1075.000000, -479.000000)" fill="#FFFFFF">
            <g id="Graphic-Design" transform="translate(1075.000000, 479.000000)">
                <g id="Group-5">
                    <path d="M18.9189189,37.8378378 C8.48719154,37.8378378 0,29.3506463 0,18.9189189 C0,8.48719154 8.48719154,0 18.9189189,0 C29.3506463,0 37.8378378,8.48719154 37.8378378,18.9189189 C37.8378378,29.3506463 29.3506463,37.8378378 18.9189189,37.8378378 M18.9189189,1.64512338 C9.39365452,1.64512338 1.64512338,9.39365452 1.64512338,18.9189189 C1.64512338,28.4441833 9.39365452,36.1927145 18.9189189,36.1927145 C28.4441833,36.1927145 36.1927145,28.4441833 36.1927145,18.9189189 C36.1927145,9.39365452 28.4441833,1.64512338 18.9189189,1.64512338" id="Fill-1"></path>
                    <path d="M49.1820768,50 L19.7368421,50 C19.2853485,50 18.9189189,49.6335704 18.9189189,49.1820768 L18.9189189,37.7311522 C18.9189189,37.2796586 19.2853485,36.913229 19.7368421,36.913229 C20.1883357,36.913229 20.5547653,37.2796586 20.5547653,37.7311522 L20.5547653,48.3641536 L48.3641536,48.3641536 L48.3641536,20.5547653 L37.7311522,20.5547653 C37.2796586,20.5547653 36.913229,20.1883357 36.913229,19.7368421 C36.913229,19.2853485 37.2796586,18.9189189 37.7311522,18.9189189 L49.1820768,18.9189189 C49.6335704,18.9189189 50,19.2853485 50,19.7368421 L50,49.1820768 C50,49.6335704 49.6335704,50 49.1820768,50" id="Fill-3"></path>
                </g>
            </g>
        </g>
    </g>
</svg>