<?xml version="1.0" encoding="UTF-8"?>
<svg width="59px" height="44px" viewBox="0 0 59 44" version="1.1" xmlns="http://www.w3.org/2000/svg" xmlns:xlink="http://www.w3.org/1999/xlink">
    <!-- Generator: Sketch 52.6 (67491) - http://www.bohemiancoding.com/sketch -->
    <title>Video Editing</title>
    <desc>Created with Sketch.</desc>
    <defs>
        <polygon id="path-1" points="0 0.000375 58.5725065 0.000375 58.5725065 43.91025 0 43.91025"></polygon>
    </defs>
    <g id="Page-1" stroke="none" stroke-width="1" fill="none" fill-rule="evenodd">
        <g id="Render_Services_V1-Copy" transform="translate(-303.000000, -485.000000)">
            <g id="Video-Editing" transform="translate(303.000000, 485.000000)">
                <mask id="mask-2" fill="white">
                    <use xlink:href="#path-1"></use>
                </mask>
                <g id="Clip-2"></g>
                <path d="M4.50541957,38.055375 C2.84700652,38.055375 1.50155,39.365375 1.50155,40.982875 C1.50155,42.599125 2.84700652,43.910375 4.50541957,43.910375 C5.90474565,43.910375 7.05781087,42.976625 7.39128913,41.714125 L54.8183109,41.714125 C55.2325935,41.714125 55.5699196,41.387875 55.5699196,40.982875 C55.5699196,40.579125 55.2325935,40.250375 54.8183109,40.250375 L7.39128913,40.250375 C7.05781087,38.989125 5.90474565,38.055375 4.50541957,38.055375 Z M24.0062022,9.331625 L36.84255,16.831625 L24.0062022,24.310375 L24.0062022,9.331625 Z M23.160963,7.317875 C22.8249196,7.377875 22.5530065,7.702875 22.5517239,8.050375 L22.5517239,25.614125 C22.5465935,25.659125 22.5465935,25.706625 22.5517239,25.751625 C22.6492022,26.214125 23.2545935,26.477875 23.6547674,26.231625 L38.6497457,17.450375 C39.0640283,17.181625 39.0640283,16.460375 38.6497457,16.191625 L23.6547674,7.409125 C23.5072674,7.322875 23.3289848,7.290375 23.160963,7.317875 Z M1.50155,32.201625 L57.0705717,32.201625 L57.0705717,1.464125 L1.50155,1.464125 L1.50155,32.201625 Z M-0.000384782609,0.000375 L-0.000384782609,0.731625 L-0.000384782609,32.932875 L-0.000384782609,33.664125 L0.751223913,33.664125 L57.8208978,33.664125 L58.5725065,33.664125 L58.5725065,32.932875 L58.5725065,0.731625 L58.5725065,0.000375 L57.8208978,0.000375 L0.751223913,0.000375 L-0.000384782609,0.000375 Z" id="Fill-1" fill="#FFFFFF" mask="url(#mask-2)"></path>
            </g>
        </g>
    </g>
</svg>