<?xml version="1.0" encoding="UTF-8"?>
<svg width="16px" height="13px" viewBox="0 0 16 13" version="1.1" xmlns="http://www.w3.org/2000/svg" xmlns:xlink="http://www.w3.org/1999/xlink">
    <!-- Generator: Sketch 55.2 (78181) - https://sketchapp.com -->
    <title>Group 3</title>
    <desc>Created with Sketch.</desc>
    <defs>
        <polygon id="path-1" points="0 0 16 0 16 13 0 13"></polygon>
    </defs>
    <g id="Symbols" stroke="none" stroke-width="1" fill="none" fill-rule="evenodd">
        <g id="Contact" transform="translate(-1283.000000, 0.000000)">
            <g transform="translate(1283.000000, 0.000000)" id="Group-3">
                <g>
                    <mask id="mask-2" fill="white">
                        <use xlink:href="#path-1"></use>
                    </mask>
                    <g id="Clip-2"></g>
                    <path d="M16,1.53803958 C15.4110305,1.79917407 14.7793263,1.97603241 14.1154192,2.0550413 C14.7933012,1.64905719 15.3121938,1.0050335 15.5580704,0.239862864 C14.9221129,0.616066698 14.2203319,0.888951223 13.4725756,1.03704223 C12.8734794,0.398083216 12.0216205,0 11.0767984,0 C9.2643198,0 7.79452904,1.47017298 7.79452904,3.28211002 C7.79452904,3.53919277 7.82349144,3.79019791 7.87939088,4.03026336 C5.15186268,3.89311205 2.73360422,2.58622409 1.11474829,0.600062334 C0.831807998,1.08404239 0.670793301,1.64804426 0.670793301,2.25013246 C0.670793301,3.38927848 1.25064874,4.39431198 2.13065988,4.98221911 C1.59272902,4.96439146 1.08679857,4.81630045 0.643856251,4.57035998 L0.643856251,4.61128253 C0.643856251,6.20138694 1.77561741,7.52853358 3.2763959,7.83059062 C3.00135445,7.90453483 2.71152799,7.94545738 2.41157483,7.94545738 C2.19952151,7.94545738 1.99455689,7.92459093 1.79364296,7.88447873 C2.21147103,9.18974599 3.42343574,10.1386629 4.85920075,10.1647966 C3.73635109,11.044834 2.32043444,11.5679134 0.782794719,11.5679134 C0.517879973,11.5679134 0.257015912,11.551909 0,11.5229391 C1.45277788,12.4558516 3.17735668,13 5.03115229,13 C11.0688996,13 14.3693971,7.99752221 14.3693971,3.65932679 L14.3584602,3.23429952 C15.0031266,2.77422472 15.5611084,2.19624435 16,1.53803958" id="Fill-1" fill="#FFFFFF" mask="url(#mask-2)"></path>
                </g>
            </g>
        </g>
    </g>
</svg>