<?xml version="1.0" encoding="utf-8"?>
<!-- Generator: Adobe Illustrator 23.0.4, SVG Export Plug-In . SVG Version: 6.00 Build 0)  -->
<svg version="1.1" id="Layer_3" xmlns="http://www.w3.org/2000/svg" xmlns:xlink="http://www.w3.org/1999/xlink" x="0px" y="0px"
	 viewBox="0 0 18 18" style="enable-background:new 0 0 18 18;" xml:space="preserve">
<style type="text/css">
	.st0{fill:#FFFFFF;}
</style>
<g>
	<circle class="st0" cx="8.7" cy="9.2" r="2.9"/>
	<path class="st0" d="M12.3,0.7H5.2c-2.8,0-5,2.2-5,5v7.1c0,2.8,2.2,5,5,5h7.1c2.8,0,5-2.2,5-5V5.7C17.3,2.9,15.1,0.7,12.3,0.7z
		 M8.7,13.5c-2.4,0-4.3-1.9-4.3-4.3s1.9-4.3,4.3-4.3S13,6.9,13,9.2S11.1,13.5,8.7,13.5z M13.7,4.9c-0.4,0-0.7-0.3-0.7-0.7
		s0.3-0.7,0.7-0.7s0.7,0.3,0.7,0.7S14.1,4.9,13.7,4.9z"/>
</g>
</svg>
