<?xml version="1.0" encoding="UTF-8"?>
<svg width="21px" height="18px" viewBox="0 0 21 18" version="1.1" xmlns="http://www.w3.org/2000/svg" xmlns:xlink="http://www.w3.org/1999/xlink">
    <!-- Generator: Sketch 55.2 (78181) - https://sketchapp.com -->
    <title>Twitter</title>
    <desc>Created with Sketch.</desc>
    <g id="Page-1" stroke="none" stroke-width="1" fill="none" fill-rule="evenodd">
        <g id="Render_Clients_Expended" transform="translate(-248.000000, -644.000000)">
            <g id="Description" transform="translate(198.000000, 362.000000)">
                <g id="Social_Icons_Clients" transform="translate(23.000000, 281.000000)">
                    <g id="Twitter" transform="translate(24.202000, 0.000000)">
                        <rect id="Rectangle_393" x="0" y="0" width="11.231" height="11.231"></rect>
                        <path d="M9.463,18.462 C12.7232074,18.4913815 15.8584324,17.2092492 18.1638408,14.9038408 C20.4692492,12.5984324 21.7513815,9.46320742 21.722,6.203 L21.722,5.616 C22.5371568,4.99489241 23.2463385,4.24586149 23.822,3.398 C23.0390626,3.73830431 22.2145953,3.97367426 21.37,4.098 C22.238594,3.55391985 22.8976353,2.7320565 23.24,1.766 C22.396419,2.23542377 21.4932364,2.58862364 20.555,2.816 C19.755359,1.91608355 18.6058141,1.40566083 17.402,1.41584592 C15.0311762,1.45193992 13.1179399,3.36517625 13.082,5.736 C13.0554905,6.0520848 13.0953427,6.37022089 13.199,6.67 C9.7231748,6.50193946 6.48897623,4.84201156 4.326,2.116 C3.94178218,2.79197493 3.74049216,3.5564634 3.742,4.334 C3.77275946,5.76378656 4.46126189,7.09946652 5.608,7.954 C4.90609128,7.93984601 4.22074256,7.73821193 3.623,7.37 L3.623,7.37 C3.62179177,9.4317082 5.09487241,11.199405 7.123,11.57 C6.74268991,11.6726394 6.34811239,11.7121648 5.955,11.687 C5.67747942,11.7056125 5.39914269,11.6657527 5.138,11.57 C5.72279885,13.3428948 7.35776996,14.5577191 9.224,14.606 C7.68918128,15.804899 5.80053114,16.4617597 3.853,16.474 C3.50077957,16.4932815 3.14777821,16.4547722 2.808,16.36 C4.74026846,17.7624482 7.07574869,18.4994141 9.463,18.46" id="Path_2" fill="#FFFFFF"></path>
                    </g>
                </g>
            </g>
        </g>
    </g>
</svg>