<?xml version="1.0" encoding="UTF-8"?>
<svg width="17px" height="18px" viewBox="0 0 17 18" version="1.1" xmlns="http://www.w3.org/2000/svg" xmlns:xlink="http://www.w3.org/1999/xlink">
    <!-- Generator: Sketch 55.2 (78181) - https://sketchapp.com -->
    <title>Twitch_Tv</title>
    <desc>Created with Sketch.</desc>
    <g id="Page-1" stroke="none" stroke-width="1" fill="none" fill-rule="evenodd">
        <g id="Render_Clients_Expended" transform="translate(-275.000000, -643.000000)" fill="#FFFFFF">
            <g id="Description" transform="translate(198.000000, 362.000000)">
                <g id="Social_Icons_Clients" transform="translate(23.000000, 281.000000)">
                    <g id="Twitch_Tv" transform="translate(54.292000, 0.655000)">
                        <g id="Group_337">
                            <path d="M4.088,16.985 L4.088,14.813 L0,14.813 L0,3.676 C0,2.39 0.7,1.335 1.092,0.182 C1.128,0.073 1.468,0.012 1.662,0.012 C4.634,0 7.595,0 10.567,0 L16.267,0 C16.279,0.218 16.303,0.412 16.303,0.607 C16.303,3.701 16.315,6.794 16.291,9.888 C16.2769922,10.197732 16.1569536,10.4932388 15.951,10.725 C14.717,11.9983333 13.46,13.2566667 12.18,14.5 C11.9750415,14.6729312 11.7196887,14.7750022 11.452,14.791 C10.627,14.827 9.79,14.779 8.965,14.815 C8.6983913,14.8423491 8.44547252,14.9465738 8.237,15.115 C7.94079579,15.3284969 7.67908683,15.5861588 7.461,15.879 C6.71465317,16.9660246 5.33309877,17.4190335 4.088,16.985 Z M11.78,12.217 C12.0854959,12.1906271 12.3745629,12.0672919 12.605,11.865 C13.252576,11.2841481 13.8681481,10.668576 14.449,10.021 C14.6805386,9.76269401 14.817361,9.4333328 14.837,9.087 C14.873,6.77 14.849,4.441 14.849,2.123 L14.849,1.492 L2.6,1.492 L2.6,12.241 L5.92,12.241 L5.92,14.328 C5.969,14.352 6.005,14.377 6.053,14.401 C6.623,13.807 7.206,13.224 7.739,12.618 L11.78,12.217 Z" id="Path_264" fill-rule="nonzero"></path>
                            <polygon id="Path_265" points="6.697 8.832 6.697 4.513 8.08 4.513 8.08 8.832"></polygon>
                            <polygon id="Path_266" points="12.18 8.844 10.809 8.844 10.809 4.525 12.18 4.525"></polygon>
                        </g>
                    </g>
                </g>
            </g>
        </g>
    </g>
</svg>