<?xml version="1.0" encoding="UTF-8"?>
<svg width="12px" height="15px" viewBox="0 0 12 15" version="1.1" xmlns="http://www.w3.org/2000/svg" xmlns:xlink="http://www.w3.org/1999/xlink">
    <!-- Generator: Sketch 55.2 (78181) - https://sketchapp.com -->
    <title>Group 6</title>
    <desc>Created with Sketch.</desc>
    <defs>
        <polygon id="path-1" points="0 0.0503942439 11.9386227 0.0503942439 11.9386227 14.3181818 0 14.3181818"></polygon>
    </defs>
    <g id="Symbols" stroke="none" stroke-width="1" fill="none" fill-rule="evenodd">
        <g id="Contact" transform="translate(-1354.000000, 0.000000)">
            <g transform="translate(1283.000000, 0.000000)" id="Group-6">
                <g transform="translate(71.000000, 0.000000)">
                    <path d="M4.71704745,6 C4.31634446,6 4,6.44545455 4,7 C4,7.55454545 4.32337434,8 4.71704745,8 C5.11775044,8 5.4340949,7.55454545 5.4340949,7 C5.44112478,6.44545455 5.11775044,6 4.71704745,6 M7.28295255,6 C6.88224956,6 6.5659051,6.44545455 6.5659051,7 C6.5659051,7.55454545 6.88927944,8 7.28295255,8 C7.68365554,8 8,7.55454545 8,7 C8,6.44545455 7.67662566,6 7.28295255,6" id="Fill-1" fill="#FFFFFF"></path>
                    <g id="Group-5">
                        <mask id="mask-2" fill="white">
                            <use xlink:href="#path-1"></use>
                        </mask>
                        <g id="Clip-4"></g>
                        <path d="M7.90225909,9.36800503 C7.90225909,9.36800503 7.65680455,9.05854523 7.45225909,8.79239973 C8.34544091,8.52618228 8.68635,7.94330996 8.68635,7.94330996 C8.40680455,8.13757675 8.14089545,8.27435496 7.90225909,8.36789082 C7.56135,8.51891526 7.23407727,8.61252307 6.91362273,8.67720672 C6.25907727,8.80671791 5.65907727,8.77074258 5.14771364,8.6700836 C4.75907727,8.59086592 4.42498636,8.48293993 4.14544091,8.36069575 C3.98862273,8.29594016 3.81816818,8.21679443 3.64771364,8.1160635 C3.62725909,8.10160142 3.60680455,8.0944783 3.58635,8.08008817 C3.57271364,8.0728931 3.56589545,8.06562608 3.55907727,8.06562608 C3.43635,7.99367542 3.36816818,7.94330996 3.36816818,7.94330996 C3.36816818,7.94330996 3.69544091,8.51179214 4.56135,8.78513271 C4.35680455,9.05854523 4.10453182,9.37520009 4.10453182,9.37520009 C2.59771364,9.32476268 2.02498636,8.28874509 2.02498636,8.28874509 C2.02498636,5.99351896 3.00680455,4.1299968 3.00680455,4.1299968 C3.98862273,3.36012471 4.91589545,3.38170991 4.91589545,3.38170991 L4.98407727,3.46805071 C3.75680455,3.83499909 3.19771364,4.40340932 3.19771364,4.40340932 C3.19771364,4.40340932 3.34771364,4.31706852 3.59998636,4.20194746 C4.32953182,3.86377935 4.90907727,3.77743856 5.14771364,3.74858634 C5.18862273,3.74146323 5.22271364,3.73426816 5.26362273,3.73426816 C5.67953182,3.67663568 6.14998636,3.6623175 6.64089545,3.71987803 C7.28862273,3.79902376 7.98407727,4.00041366 8.69316818,4.40340932 C8.69316818,4.40340932 8.15453182,3.86377935 6.99544091,3.49675902 L7.09089545,3.38170991 C7.09089545,3.38170991 8.02498636,3.36012471 8.99998636,4.1299968 C8.99998636,4.1299968 9.98180455,5.99351896 9.98180455,8.28874509 C9.98180455,8.28147807 9.40907727,9.31763956 7.90225909,9.36800503 M10.5340773,0.0503942439 L1.39771364,0.0503942439 C0.627259091,0.0503942439 -1.36363636e-05,0.712340338 -1.36363636e-05,1.52538282 L-1.36363636e-05,11.1667716 C-1.36363636e-05,11.9798141 0.627259091,12.6417602 1.39771364,12.6417602 L9.12953182,12.6417602 L8.76816818,11.3249911 L9.64089545,12.1740809 L10.4658955,12.9727332 L11.9386227,14.3182106 L11.9386227,1.52538282 C11.9318045,0.712340338 11.3045318,0.0503942439 10.5340773,0.0503942439" id="Fill-3" fill="#FFFFFF" mask="url(#mask-2)"></path>
                    </g>
                </g>
            </g>
        </g>
    </g>
</svg>