<?xml version="1.0" encoding="UTF-8"?>
<svg width="117px" height="23px" viewBox="0 0 117 23" version="1.1" xmlns="http://www.w3.org/2000/svg" xmlns:xlink="http://www.w3.org/1999/xlink">
    <!-- Generator: Sketch 55.2 (78181) - https://sketchapp.com -->
    <title>Render_Logo</title>
    <desc>Created with Sketch.</desc>
    <g id="Page-1" stroke="none" stroke-width="1" fill="none" fill-rule="evenodd">
        <g id="Render_Services_Content_Management" transform="translate(-662.000000, -35.000000)">
            <g id="Render_Logo" transform="translate(662.000000, 35.000000)">
                <g>
                    <path d="M34.8590475,12.0476264 C34.7548336,11.2551147 34.4641714,10.6290971 33.9864925,10.1701443 C33.5084347,9.71138189 32.8958461,9.48171525 32.1479689,9.48171525 C31.4000917,9.48171525 30.7871242,9.71138189 30.3094453,10.1701443 C29.8311981,10.6290971 29.5407253,11.2551147 29.4368904,12.0476264 L34.8590475,12.0476264 Z M32.241572,22.3428571 C30.807967,22.3428571 29.530304,22.1185183 28.4085829,21.6700309 C27.2868618,21.2217338 26.3466625,20.6115093 25.5885533,19.8395478 C24.8298758,19.0679668 24.2534779,18.1808865 23.8589807,17.1796389 C23.464294,16.178201 23.2670455,15.1250072 23.2670455,14.0191062 C23.2670455,12.829863 23.4587991,11.7034118 23.8434433,10.6395624 C24.2277086,9.57552275 24.7988011,8.6475325 25.5572892,7.85445 C26.3153983,7.06174805 27.2502922,6.4305929 28.3617813,5.96117483 C29.4728915,5.49175675 30.7660919,5.25714286 32.241572,5.25714286 C33.6952619,5.25714286 34.9837253,5.49175675 36.1054464,5.96117483 C37.2273569,6.4305929 38.1669878,7.05642024 38.9254759,7.83865685 C39.683585,8.62108373 40.254867,9.52852386 40.6395112,10.5611675 C41.023587,11.5940014 41.2159091,12.6734537 41.2159091,13.7999049 C41.2159091,14.1129137 41.2003717,14.4312503 41.1691076,14.7545342 C41.1380328,15.0781986 41.1014632,15.3647586 41.0601566,15.6149754 L29.5615681,15.6149754 C29.623907,16.4912098 29.9456439,17.1223649 30.5275367,17.5082506 C31.1088611,17.8945168 31.7428609,18.087079 32.4283992,18.087079 C33.0720625,18.087079 33.6797245,17.9415156 34.2513854,17.649057 C34.8224779,17.3571691 35.2018167,16.9503528 35.3886439,16.428608 L40.405693,17.868068 C39.7406185,19.1825147 38.7176164,20.25721 37.3363079,21.0912025 C35.9544309,21.925956 34.2561224,22.3428571 32.241572,22.3428571 L32.241572,22.3428571 Z" id="Fill-11" fill="#FFFFFF"></path>
                    <path d="M60.3367103,9.31607506 C60.2316384,8.62936578 60.0069756,7.98442482 59.6613846,7.38125219 C59.3159846,6.77675057 58.814123,6.27287265 58.1533162,5.86677059 C57.4938468,5.46085838 56.59787,5.25714286 55.4669143,5.25714286 C54.021698,5.25714286 52.7698141,5.49218463 51.7137459,5.95942034 C50.6548122,6.42836475 49.8323858,7.11108705 49.2464666,8.00530898 L49.2464666,5.30802427 L43.875,5.30802427 L43.875,22.3428571 L49.8442302,22.3428571 L49.8442302,12.7822767 C50.1160799,12.0955674 50.5352213,11.533024 51.100126,11.0967348 C51.6663681,10.6594964 52.1997512,10.4402127 52.7029501,10.4402127 C53.1837974,10.4402127 53.6079058,10.6228542 53.9745112,10.9871879 C54.3411166,11.3515216 54.5248969,11.9389362 54.5248969,12.7509505 L54.5248969,22.3428571 L60.4943182,22.3428571 L60.4943182,11.1895744 C60.4943182,10.6281701 60.4417822,10.0027843 60.3367103,9.31607506" id="Fill-12" fill="#FFFFFF"></path>
                    <path d="M95.3533657,12.0476264 C95.2491517,11.2551147 94.9584896,10.6290971 94.4810002,10.1701443 C94.0027529,9.71138189 93.3901643,9.48171525 92.6422871,9.48171525 C91.8945994,9.48171525 91.2814424,9.71138189 90.8037635,10.1701443 C90.3257057,10.6290971 90.0350435,11.2551147 89.9312085,12.0476264 L95.3533657,12.0476264 Z M92.7358902,22.3428571 C91.3024747,22.3428571 90.0248116,22.1185183 88.9030905,21.6700309 C87.78118,21.2217338 86.8409806,20.6115093 86.0828715,19.8395478 C85.324194,19.0679668 84.7477961,18.1808865 84.3534884,17.1796389 C83.9586122,16.178201 83.7613636,15.1250072 83.7613636,14.0191062 C83.7613636,12.829863 83.9531173,11.7034118 84.3377615,10.6395624 C84.7220268,9.57552275 85.2931192,8.6475325 86.0517968,7.85445 C86.8099059,7.06174805 87.7446103,6.4305929 88.856289,5.96117483 C89.9673992,5.49175675 91.2604101,5.25714286 92.7358902,5.25714286 C94.1895801,5.25714286 95.4780435,5.49175675 96.599954,5.96117483 C97.7216751,6.4305929 98.661306,7.05642024 99.4199836,7.83865685 C100.178093,8.62108373 100.749185,9.52852386 101.133829,10.5611675 C101.517905,11.5940014 101.710227,12.6734537 101.710227,13.7999049 C101.710227,14.1129137 101.69469,14.4312503 101.663615,14.7545342 C101.632351,15.0781986 101.595781,15.3647586 101.554475,15.6149754 L90.0558863,15.6149754 C90.1182252,16.4912098 90.4401516,17.1223649 91.0220444,17.5082506 C91.6031793,17.8945168 92.2371791,18.087079 92.9227174,18.087079 C93.5663806,18.087079 94.1740427,17.9415156 94.7457036,17.649057 C95.3169856,17.3571691 95.6961349,16.9503528 95.8831515,16.428608 L100.900011,17.868068 C100.234937,19.1825147 99.2119346,20.25721 97.8306261,21.0912025 C96.4489386,21.925956 94.7506301,22.3428571 92.7358902,22.3428571 L92.7358902,22.3428571 Z" id="Fill-13" fill="#FFFFFF"></path>
                    <path d="M13.2908887,11.5723831 L13.2722525,11.5723831 L9.07506908,6.4383493 L13.2908887,6.4383493 C14.0055972,6.4383493 14.6542144,6.72600273 15.1245388,7.1914195 C15.5935182,7.65550543 15.8855496,8.29735471 15.8855496,9.00479582 C15.8855496,10.4204385 14.7216507,11.5723831 13.2908887,11.5723831 L13.2908887,11.5723831 Z M22.5878633,22.9699608 L17.460406,16.697291 L17.2133321,16.3940476 C19.8940654,14.9951356 21.7263705,12.2077682 21.7263705,9.00479582 C21.7263705,4.40272126 17.9426421,0.657142857 13.2908887,0.657142857 L0.0489921164,0.657142857 L0.0132566903,17.1155577 L0,22.9699608 L0,22.9830792 L5.8408209,23 L5.8408209,22.9699608 L5.85004295,17.1155577 L5.85792011,11.6940607 L15.073049,22.9699608 L15.0876506,22.9870718 L22.6022727,22.9870718 L22.5878633,22.9699608 Z" id="Fill-14" fill="#FFFFFF"></path>
                    <polygon id="Fill-15" fill="#FF6133" points="5.98295455 17.0857143 5.97352298 22.9698085 5.97352298 23 0 22.9829934 0 22.9698085 0.0133613882 17.0857143"></polygon>
                    <path d="M72.4807914,17.3094436 C71.5058768,17.3094436 70.7245462,16.9972881 70.1330186,16.3720276 C69.5428144,15.7479063 69.2477122,14.914732 69.2477122,13.8742135 C69.2477122,13.374081 69.3257886,12.906797 69.4804289,12.4693235 C69.6365816,12.0320399 69.8432098,11.6467823 70.1018259,11.3137404 C70.3619543,10.9806985 70.6725583,10.7209486 71.0353392,10.5329717 C71.397931,10.346324 71.7970089,10.2523355 72.2325729,10.2523355 C72.8539698,10.2523355 73.4441741,10.4754394 74.0045089,10.923356 C74.4958417,11.3177278 74.884522,11.8189995 75.1665799,12.4302092 L75.1665799,15.7779067 C74.4022635,16.7990579 73.5078829,17.3094436 72.4807914,17.3094436 L72.4807914,17.3094436 Z M75.1665799,0 L75.1665799,7.85762386 C74.694719,7.05331062 74.0434526,6.42520199 73.2114574,5.97348782 C72.330121,5.49557082 71.361634,5.25537813 70.3046731,5.25537813 C69.2477122,5.25537813 68.2831952,5.46955786 67.4133907,5.89658819 C66.5424519,6.32342864 65.7911797,6.91622041 65.1591961,7.67610274 C64.5262673,8.43617495 64.0347455,9.33561589 63.6825512,10.3763243 C63.3301679,11.418172 63.1534091,12.5424257 63.1534091,13.7488955 C63.1534091,14.9984672 63.3458588,16.1487338 63.7294348,17.1996955 C64.1128218,18.2508471 64.6459339,19.1569337 65.3295273,19.916816 C66.0146331,20.6768882 66.8271564,21.2643635 67.7708783,21.6809506 C68.7134658,22.0973479 69.7443383,22.3050719 70.8636847,22.3050719 C71.9412517,22.3050719 72.9579456,22.0764616 73.9107417,21.6182917 C74.3748517,21.3949979 74.7947247,21.1077161 75.1665799,20.7537879 L75.1665799,22.3428571 L81.1022727,22.3428571 L81.1022727,0 L75.1665799,0 Z" id="Fill-16" fill="#FFFFFF"></path>
                    <path d="M117,5.32750986 L117,10.8576732 C116.952917,10.8550178 116.906025,10.8523625 116.858942,10.8510348 C115.410011,10.7922375 114.2637,10.9566801 113.360207,11.2332167 C112.230983,11.5787927 111.480318,12.0979152 110.994683,12.5701897 C110.687887,12.8674002 110.486836,13.1465922 110.362864,13.3525721 C110.351094,13.3709699 110.340652,13.3905058 110.33021,13.4073863 L110.33021,22.3428571 L104.369318,22.3428571 L104.369318,5.25714286 L110.33021,5.25714286 L110.33021,7.87741264 C110.450195,7.66877734 110.659219,7.36739415 110.990886,7.04400943 C111.476331,6.57040728 112.226996,6.05014669 113.358878,5.70305341 C113.977787,5.51528163 114.711365,5.37701332 115.576889,5.32883754 C115.933426,5.30930168 116.310657,5.30399097 116.712758,5.31707809 C116.761169,5.31707809 116.809391,5.31973345 116.858942,5.32106113 C116.906025,5.32352682 116.952917,5.3248545 117,5.32750986" id="Fill-17" fill="#FFFFFF"></path>
                </g>
            </g>
        </g>
    </g>
</svg>