<?xml version="1.0" encoding="UTF-8"?>
<svg width="90px" height="90px" viewBox="0 0 90 90" version="1.1" xmlns="http://www.w3.org/2000/svg" xmlns:xlink="http://www.w3.org/1999/xlink">
    <!-- Generator: Sketch 55.2 (78181) - https://sketchapp.com -->
    <title>Play</title>
    <desc>Created with Sketch.</desc>
    <g id="Page-1" stroke="none" stroke-width="1" fill="none" fill-rule="evenodd">
        <g id="Render_Services_Content_Production" transform="translate(-948.000000, -460.000000)" fill="#FFFFFF">
            <g id="Content-Production" transform="translate(163.000000, 362.000000)">
                <g id="Play" transform="translate(785.000000, 98.000000)">
                    <path d="M45,0 C20.2,0 0,20.1 0,45 C0,69.9 20.2,90 45,90 C69.8,90 90,69.9 90,45 C90,20.1 69.8,0 45,0 M45,2 C68.7,2 88,21.3 88,45 C88,68.7 68.7,88 45,88 C21.3,88 2,68.7 2,45 C2,21.3 21.3,2 45,2" id="Fill-1"></path>
                    <path d="M34.7998,25.5 L34.7998,64.5 L65.5998,45 L34.7998,25.5 Z M32.7998,68.1 L32.7998,21.9 L69.4008,45 L32.7998,68.1 Z" id="Fill-3"></path>
                </g>
            </g>
        </g>
    </g>
</svg>