<?xml version="1.0" encoding="UTF-8"?>
<svg width="26px" height="18px" viewBox="0 0 26 18" version="1.1" xmlns="http://www.w3.org/2000/svg" xmlns:xlink="http://www.w3.org/1999/xlink">
    <!-- Generator: Sketch 55.2 (78181) - https://sketchapp.com -->
    <title>YouTube</title>
    <desc>Created with Sketch.</desc>
    <g id="Page-1" stroke="none" stroke-width="1" fill="none" fill-rule="evenodd">
        <g id="Render_Clients_Expended" transform="translate(-298.000000, -643.000000)" fill="#FFFFFF" fill-rule="nonzero">
            <g id="Description" transform="translate(198.000000, 362.000000)">
                <g id="Social_Icons_Clients" transform="translate(23.000000, 281.000000)">
                    <g id="YouTube" transform="translate(77.186000, 0.001000)">
                        <path d="M21.193,-3.37867743e-05 L4.317,-3.37867743e-05 C3.17067434,-0.00454101499 2.06998811,0.448826096 1.2594071,1.2594071 C0.448826096,2.06998811 -0.00454101499,3.17067434 -3.37867743e-05,4.317 L-3.37867743e-05,13.344 C-0.00454101499,14.4903257 0.448826096,15.5910119 1.2594071,16.4015929 C2.06998811,17.2121739 3.17067434,17.665541 4.317,17.6610338 L21.193,17.6610338 C22.3393257,17.665541 23.4400119,17.2121739 24.2505929,16.4015929 C25.0611739,15.5910119 25.514541,14.4903257 25.5100338,13.344 L25.5100338,4.317 C25.514541,3.17067434 25.0611739,2.06998811 24.2505929,1.2594071 C23.4400119,0.448826096 22.3393257,-0.00454101499 21.193,-3.37867743e-05 Z M17.74,8.988 L10.087,12.913 C9.98798188,12.9442425 9.8798691,12.9135778 9.812,12.835 C9.812,12.796 9.773,12.796 9.773,12.757 L9.773,4.906 C9.76838338,4.85167237 9.787967,4.79807477 9.82652088,4.75952088 C9.86507477,4.720967 9.91867237,4.70138338 9.973,4.706 C10.012,4.706 10.051,4.706 10.051,4.745 L17.7,8.674 C17.7883682,8.73525435 17.8210479,8.85047127 17.778,8.949 C17.817,8.949 17.778,8.988 17.739,8.988 L17.74,8.988 Z" id="Path_270"></path>
                    </g>
                </g>
            </g>
        </g>
    </g>
</svg>